<mxfile host="app.diagrams.net" agent="Mozilla/5.0 (Windows NT 10.0; Win64; x64) AppleWebKit/537.36 (KHTML, like Gecko) Chrome/140.0.0.0 Safari/537.36 Edg/140.0.0.0" version="28.2.1">
  <diagram id="AfIGXqZgZYm5uRgUZdDE" name="ページ1">
    <mxGraphModel dx="778" dy="507" grid="1" gridSize="10" guides="1" tooltips="1" connect="1" arrows="1" fold="1" page="1" pageScale="1" pageWidth="827" pageHeight="1169" math="0" shadow="0">
      <root>
        <mxCell id="0" />
        <mxCell id="1" parent="0" />
        <mxCell id="-uXy_XvRp6AdeyujohvW-6" value="&lt;font style=&quot;color: rgb(0, 0, 0);&quot;&gt;メニュー&lt;/font&gt;&lt;div&gt;&lt;font style=&quot;color: rgb(0, 0, 0);&quot;&gt;画面&lt;/font&gt;&lt;/div&gt;" style="shape=umlBoundary;whiteSpace=wrap;html=1;fillColor=#60a917;fontColor=#ffffff;strokeColor=#2D7600;" vertex="1" parent="1">
          <mxGeometry x="230" y="100" width="100" height="80" as="geometry" />
        </mxCell>
        <mxCell id="-uXy_XvRp6AdeyujohvW-7" value="学生" style="shape=umlActor;verticalLabelPosition=bottom;verticalAlign=top;html=1;" vertex="1" parent="1">
          <mxGeometry x="60" y="100" width="45" height="90" as="geometry" />
        </mxCell>
        <mxCell id="-uXy_XvRp6AdeyujohvW-8" value="&lt;font style=&quot;color: rgb(0, 0, 0);&quot;&gt;学生登録&lt;/font&gt;&lt;div&gt;&lt;font style=&quot;color: rgb(0, 0, 0);&quot;&gt;画面&lt;/font&gt;&lt;/div&gt;" style="shape=umlBoundary;whiteSpace=wrap;html=1;fillColor=#60a917;fontColor=#ffffff;strokeColor=#2D7600;" vertex="1" parent="1">
          <mxGeometry x="230" y="240" width="100" height="80" as="geometry" />
        </mxCell>
        <mxCell id="-uXy_XvRp6AdeyujohvW-9" value="" style="endArrow=classic;html=1;rounded=0;entryX=-0.02;entryY=0.504;entryDx=0;entryDy=0;entryPerimeter=0;" edge="1" parent="1" target="-uXy_XvRp6AdeyujohvW-6">
          <mxGeometry width="50" height="50" relative="1" as="geometry">
            <mxPoint x="120" y="140" as="sourcePoint" />
            <mxPoint x="200" y="140" as="targetPoint" />
          </mxGeometry>
        </mxCell>
        <mxCell id="-uXy_XvRp6AdeyujohvW-10" value="" style="endArrow=classic;html=1;rounded=0;entryX=-0.007;entryY=0.513;entryDx=0;entryDy=0;entryPerimeter=0;" edge="1" parent="1" target="-uXy_XvRp6AdeyujohvW-8">
          <mxGeometry width="50" height="50" relative="1" as="geometry">
            <mxPoint x="120" y="160" as="sourcePoint" />
            <mxPoint x="258" y="160" as="targetPoint" />
          </mxGeometry>
        </mxCell>
        <mxCell id="-uXy_XvRp6AdeyujohvW-11" value="&lt;font style=&quot;color: rgb(0, 0, 0);&quot;&gt;表示&lt;/font&gt;" style="ellipse;shape=umlControl;whiteSpace=wrap;html=1;fillColor=#d80073;fontColor=#ffffff;strokeColor=#A50040;" vertex="1" parent="1">
          <mxGeometry x="470" y="110" width="70" height="80" as="geometry" />
        </mxCell>
        <mxCell id="-uXy_XvRp6AdeyujohvW-12" value="&lt;font style=&quot;color: rgb(0, 0, 0);&quot;&gt;学生情報&lt;/font&gt;&lt;div&gt;&lt;font style=&quot;color: rgb(0, 0, 0);&quot;&gt;登録&lt;/font&gt;&lt;/div&gt;" style="ellipse;shape=umlControl;whiteSpace=wrap;html=1;fillColor=#d80073;fontColor=#ffffff;strokeColor=#A50040;" vertex="1" parent="1">
          <mxGeometry x="470" y="240" width="70" height="80" as="geometry" />
        </mxCell>
        <mxCell id="-uXy_XvRp6AdeyujohvW-13" value="" style="endArrow=classic;html=1;rounded=0;entryX=-0.019;entryY=0.521;entryDx=0;entryDy=0;entryPerimeter=0;exitX=1;exitY=0.463;exitDx=0;exitDy=0;exitPerimeter=0;" edge="1" parent="1" source="-uXy_XvRp6AdeyujohvW-6" target="-uXy_XvRp6AdeyujohvW-11">
          <mxGeometry width="50" height="50" relative="1" as="geometry">
            <mxPoint x="150" y="130" as="sourcePoint" />
            <mxPoint x="258" y="130" as="targetPoint" />
          </mxGeometry>
        </mxCell>
        <mxCell id="-uXy_XvRp6AdeyujohvW-14" value="" style="endArrow=classic;html=1;rounded=0;entryX=0.927;entryY=0.163;entryDx=0;entryDy=0;entryPerimeter=0;exitX=-0.019;exitY=0.663;exitDx=0;exitDy=0;exitPerimeter=0;" edge="1" parent="1" source="-uXy_XvRp6AdeyujohvW-11" target="-uXy_XvRp6AdeyujohvW-8">
          <mxGeometry width="50" height="50" relative="1" as="geometry">
            <mxPoint x="460" y="160" as="sourcePoint" />
            <mxPoint x="599" y="165" as="targetPoint" />
          </mxGeometry>
        </mxCell>
        <mxCell id="-uXy_XvRp6AdeyujohvW-15" value="" style="endArrow=classic;html=1;rounded=0;entryX=-0.029;entryY=0.613;entryDx=0;entryDy=0;entryPerimeter=0;exitX=1.027;exitY=0.579;exitDx=0;exitDy=0;exitPerimeter=0;" edge="1" parent="1" source="-uXy_XvRp6AdeyujohvW-8" target="-uXy_XvRp6AdeyujohvW-12">
          <mxGeometry width="50" height="50" relative="1" as="geometry">
            <mxPoint x="476" y="250" as="sourcePoint" />
            <mxPoint x="330" y="340" as="targetPoint" />
          </mxGeometry>
        </mxCell>
        <mxCell id="-uXy_XvRp6AdeyujohvW-16" value="学生オブジェクト" style="ellipse;shape=umlEntity;whiteSpace=wrap;html=1;fillColor=#0050ef;fontColor=#ffffff;strokeColor=#001DBC;" vertex="1" parent="1">
          <mxGeometry x="660" y="190" width="80" height="80" as="geometry" />
        </mxCell>
        <mxCell id="-uXy_XvRp6AdeyujohvW-17" value="" style="endArrow=classic;startArrow=classic;html=1;rounded=0;entryX=0;entryY=0.5;entryDx=0;entryDy=0;exitX=0.99;exitY=0.529;exitDx=0;exitDy=0;exitPerimeter=0;" edge="1" parent="1" source="-uXy_XvRp6AdeyujohvW-12" target="-uXy_XvRp6AdeyujohvW-16">
          <mxGeometry width="50" height="50" relative="1" as="geometry">
            <mxPoint x="480" y="310" as="sourcePoint" />
            <mxPoint x="530" y="260" as="targetPoint" />
          </mxGeometry>
        </mxCell>
        <mxCell id="-uXy_XvRp6AdeyujohvW-18" value="①メニュー画面をクリックする" style="text;html=1;align=center;verticalAlign=middle;whiteSpace=wrap;rounded=0;" vertex="1" parent="1">
          <mxGeometry x="130" y="100" width="90" height="30" as="geometry" />
        </mxCell>
        <mxCell id="-uXy_XvRp6AdeyujohvW-19" value="②学生情報を&lt;div&gt;入力する&lt;/div&gt;" style="text;html=1;align=center;verticalAlign=middle;whiteSpace=wrap;rounded=0;" vertex="1" parent="1">
          <mxGeometry x="120" y="270" width="90" height="30" as="geometry" />
        </mxCell>
      </root>
    </mxGraphModel>
  </diagram>
</mxfile>
